<?xml version="1.0" standalone="no"?>
<!DOCTYPE svg PUBLIC "-//W3C//DTD SVG 20010904//EN"
 "http://www.w3.org/TR/2001/REC-SVG-20010904/DTD/svg10.dtd">
<svg version="1.0" xmlns="http://www.w3.org/2000/svg"
 width="981.000000pt" height="982.000000pt" viewBox="0 0 981.000000 982.000000"
 preserveAspectRatio="xMidYMid meet">

<g transform="translate(0.000000,982.000000) scale(0.100000,-0.100000)"
fill="#000000" stroke="none">
<path d="M4540 9799 c-1542 -124 -2905 -929 -3743 -2210 -430 -658 -683 -1366
-774 -2171 -22 -193 -25 -777 -5 -968 86 -825 344 -1559 789 -2237 586 -894
1482 -1590 2495 -1938 526 -181 1034 -265 1598 -265 555 0 1033 77 1550 250
731 244 1369 638 1915 1185 836 836 1334 1920 1425 3104 13 172 13 550 0 717
-37 470 -132 904 -290 1329 -28 77 -54 148 -57 158 -3 9 -10 17 -15 17 -7 0
-345 -136 -530 -214 l-37 -16 20 -47 c31 -71 112 -314 148 -438 170 -604 201
-1291 85 -1925 -220 -1200 -948 -2253 -1996 -2887 -1353 -819 -3046 -826
-4407 -18 -941 558 -1642 1471 -1936 2520 -123 441 -175 895 -154 1358 27 600
169 1158 432 1692 225 455 489 820 858 1180 725 709 1643 1124 2663 1206 213
17 655 6 856 -20 375 -50 705 -135 1040 -268 147 -58 432 -192 453 -212 4 -4
-104 -163 -242 -352 -137 -189 -247 -346 -245 -348 7 -8 2129 -317 2132 -311
2 6 -792 2101 -807 2128 -5 9 -83 -91 -232 -297 -123 -171 -228 -311 -233
-311 -5 0 -59 27 -120 59 -544 290 -1168 476 -1816 541 -142 15 -678 21 -820
9z"/>
<path d="M4660 7346 c-245 -44 -427 -130 -586 -278 -177 -166 -308 -419 -375
-723 -19 -90 -22 -137 -26 -461 l-5 -361 -47 -6 c-205 -24 -409 -192 -500
-411 -60 -145 -61 -161 -61 -1110 0 -518 4 -889 10 -931 20 -141 79 -275 168
-382 77 -93 232 -187 350 -212 37 -8 426 -11 1315 -11 1386 0 1321 -2 1452 61
169 83 299 245 357 446 l23 78 0 945 c0 1068 5 993 -82 1170 -82 167 -241 301
-409 344 -34 9 -73 16 -87 16 l-25 0 -5 348 c-6 359 -10 401 -57 586 -29 113
-92 264 -148 358 -166 280 -392 445 -712 520 -111 26 -437 34 -550 14z m434
-626 c199 -51 331 -184 393 -396 14 -50 17 -116 21 -426 l3 -368 -611 0 -611
0 3 368 c5 406 7 422 73 558 68 139 206 241 370 274 83 16 277 11 359 -10z
m-41 -1837 c212 -52 371 -205 432 -417 13 -43 16 -85 13 -155 -3 -85 -8 -105
-39 -172 -45 -94 -130 -186 -233 -254 l-76 -49 0 -378 0 -378 -260 0 -260 0
-1 383 0 382 -71 45 c-90 57 -190 165 -228 245 -118 247 13 571 284 703 139
68 287 83 439 45z"/>
</g>
</svg>
